<svg width="19" height="19" viewBox="0 0 19 19" fill="none" xmlns="http://www.w3.org/2000/svg">
<path d="M18.62 11.1718V9.30993C18.62 8.52871 18.617 7.13625 18.6051 6.51685H0.00935926C-0.00267407 7.13625 0.000334257 8.52871 0.000334257 9.30993V11.1718C0.000334257 14.6828 0.000334263 16.4382 1.09109 17.529C2.18177 18.6198 3.93729 18.6198 7.44818 18.6198H11.1722C14.6831 18.6198 16.4387 18.6198 17.5293 17.529C18.62 16.4382 18.62 14.6828 18.62 11.1718Z" fill="#9282FA" fill-opacity="0.4"/>
<path d="M4.59959 0C4.98671 0 5.30061 0.301783 5.30061 0.674104V2.03403C5.92239 2.02247 6.61937 2.02247 7.40359 2.02247H11.1424C11.9265 2.02247 12.6235 2.02247 13.2454 2.03403V0.674104C13.2454 0.301783 13.5592 0 13.9464 0C14.3335 0 14.6474 0.301783 14.6474 0.674104V2.09372C15.9927 2.19727 16.8759 2.45155 17.5247 3.07555C18.1736 3.69954 18.438 4.54892 18.5457 5.84266L18.6199 6.51684H0.000244141V5.84266C0.10799 4.54892 0.372407 3.69954 1.02126 3.07555C1.67011 2.45155 2.55329 2.19727 3.89857 2.09372V0.674104C3.89857 0.301783 4.21246 0 4.59959 0Z" fill="#9282FA"/>
</svg>
