<svg width="19" height="19" viewBox="0 0 19 19" fill="none" xmlns="http://www.w3.org/2000/svg">
<path d="M9.19778 6.05711C9.19778 7.79165 7.79162 9.19781 6.05708 9.19781C4.32254 9.19781 2.91638 7.79165 2.91638 6.05711C2.91638 4.32257 4.32246 2.91641 6.05708 2.91641C7.7917 2.91641 9.19778 4.32249 9.19778 6.05711Z" fill="#F09102"/>
<path fill-rule="evenodd" clip-rule="evenodd" d="M5.6084 0C5.98009 0 6.28148 0.301308 6.28148 0.672996V1.12171C6.28148 1.4934 5.98009 1.79471 5.6084 1.79471C5.23672 1.79471 4.93541 1.4934 4.93541 1.12171V0.672996C4.93541 0.301308 5.23672 0 5.6084 0ZM1.64295 1.64271C1.90578 1.37987 2.33185 1.37987 2.59469 1.64271L2.78857 1.83659C3.0514 2.09942 3.0514 2.5255 2.78857 2.78833C2.52573 3.05116 2.09966 3.05116 1.83682 2.78833L1.64295 2.59445C1.38011 2.33162 1.38011 1.90554 1.64295 1.64271ZM9.57386 1.64279C9.8367 1.90562 9.8367 2.33177 9.57386 2.59461L9.3799 2.78849C9.11707 3.05132 8.691 3.05132 8.42816 2.78849C8.16533 2.52565 8.16533 2.0995 8.42816 1.83667L8.62204 1.64279C8.88488 1.37995 9.31103 1.37995 9.57386 1.64279ZM0 5.6084C0 5.23672 0.301308 4.93541 0.672996 4.93541H1.12171C1.4934 4.93541 1.79471 5.23672 1.79471 5.6084C1.79471 5.98009 1.4934 6.28148 1.12171 6.28148H0.672996C0.301308 6.28148 0 5.98009 0 5.6084ZM2.78857 8.42856C3.0514 8.69139 3.0514 9.11755 2.78857 9.38038L2.59469 9.57418C2.33185 9.83701 1.90578 9.83701 1.64295 9.57418C1.38011 9.31135 1.38011 8.88519 1.64295 8.62244L1.83682 8.42856C2.09966 8.16572 2.52573 8.16572 2.78857 8.42856Z" fill="#F09102"/>
<path d="M13.4923 18.62C16.3242 18.62 18.62 16.3512 18.62 13.5525C18.62 11.3345 17.178 9.44926 15.1697 8.76265C14.8844 6.23098 12.7118 4.26242 10.0738 4.26242C7.24183 4.26242 4.94607 6.53118 4.94607 9.3298C4.94607 9.9488 5.05841 10.5419 5.26401 11.0902C5.02286 11.0434 4.77373 11.0189 4.51881 11.0189C2.39477 11.0189 0.672974 12.7205 0.672974 14.8195C0.672974 16.9185 2.39477 18.62 4.51873 18.62H13.4923Z" fill="#75501B"/>
</svg>
